<svg width="53" height="61" viewBox="0 0 53 61" fill="none" xmlns="http://www.w3.org/2000/svg">
<g clip-path="url(#clip0_10_1696)">
<path fill-rule="evenodd" clip-rule="evenodd" d="M16.8 44.25L12 37.65L19.7 29.75C19.85 29.6 19.95 29.35 19.95 29.15V25.65L25.9 25.75C26.15 25.75 26.35 25.65 26.55 25.5L28.35 23.7C28.7 23.35 28.7 22.8 28.35 22.45C28 22.1 27.45 22.1 27.1 22.45L25.55 23.95L17.1 23.85C16.9 23.85 16.7 23.9 16.55 24.05L12 27.65L8.45 23.4L8.85 20.15L19.05 10.5C19.25 10.3 19.35 10 19.3 9.70001L18.8 7.00001C18.35 5.25001 17.25 3.75001 15.7 2.80001C22.2 0.100011 30.65 -1.04999 36.35 3.15001C39.8 5.70001 41.95 9.65001 42.3 13.9V36.15L35.65 39.75C35.35 39.9 35.2 40.2 35.2 40.5V47.25H16.95V44.75C16.95 44.55 16.9 44.4 16.8 44.25ZM4.15 49H47.95V53.85H4.15V49ZM52.05 60.4H0V55.55H52.05V60.4Z" fill="white"/>
</g>
<defs>
<clipPath id="clip0_10_1696">
<rect width="52.05" height="60" fill="white" transform="translate(0 0.400024)"/>
</clipPath>
</defs>
</svg>
