<svg width="218" height="30" viewBox="0 0 218 30" fill="none" xmlns="http://www.w3.org/2000/svg">
<path d="M51.9375 20.5625C51.9375 23.25 51.0625 25.5 49.25 27.3125C47.4375 29.125 45.1875 30 42.5 30C39.8125 30 37.5625 29.125 35.75 27.3125C33.9375 25.5 33.0625 23.25 33.0625 20.5625C33.0625 17.875 33.9375 15.6875 35.75 13.875C37.5625 12.125 39.8125 11.25 42.5 11.25C45.1875 11.25 47.4375 12.125 49.25 13.9375C51.0625 15.6875 51.9375 17.875 51.9375 20.5625ZM47.625 20.5625C47.625 19.0625 47.125 17.75 46.1875 16.75C45.25 15.75 44 15.1875 42.5 15.1875C41 15.1875 39.75 15.6875 38.8125 16.75C37.875 17.75 37.375 19.0625 37.375 20.5625C37.375 22.0625 37.875 23.375 38.8125 24.5C39.8125 25.5625 41.0625 26.0625 42.5625 26.0625C44.0625 26.0625 45.3125 25.5625 46.25 24.5C47.1875 23.375 47.625 22.0625 47.625 20.5625Z" fill="#3C2D28"/>
<path d="M72.375 2.75V29.4375H68.0625V28.1875C66.5 29.3125 64.6875 29.875 62.625 29.875C60.125 29.875 58 29 56.25 27.1875C54.5 25.375 53.625 23.1875 53.625 20.5625C53.625 18 54.5 15.8125 56.25 14C58 12.1875 60.125 11.3125 62.625 11.3125C64.6875 11.3125 66.5 11.875 68.0625 12.9375V2.75H72.375ZM63.1875 26.0625C65.25 26.0625 66.875 25.25 68 23.5625V17.5C66.875 15.875 65.25 15 63.1875 15C61.6875 15 60.4375 15.5625 59.4375 16.625C58.4375 17.6875 57.9375 19 57.9375 20.5C57.9375 22 58.4375 23.3125 59.4375 24.4375C60.5 25.5625 61.75 26.0625 63.1875 26.0625Z" fill="#3C2D28"/>
<path d="M7.125 4H11.3125V0H7.125C3.1875 0 0 3.1875 0 7.125V29.4375H4V18.8125V15.875H11.3125V12.25H4V7.1875C4 5.4375 5.375 4 7.125 4Z" fill="#3C2D28"/>
<path d="M111.812 11.0625C109.75 11.0625 107.938 11.75 106.312 13.125V11.6875H101.938V29.5H106.312V17.625C107.688 15.9375 109.25 15.0625 110.875 15.0625C112.25 15.0625 113.312 15.5 114.062 16.3125C114.812 17.125 115.25 18.375 115.25 19.875V29.4375H119.562V19.625C119.562 17.0625 118.875 15 117.437 13.4375C116 11.875 114.125 11.0625 111.812 11.0625Z" fill="#71802F"/>
<path d="M135.813 12.875C134.25 11.75 132.438 11.25 130.375 11.25C127.875 11.25 125.75 12.1875 124 14C122.25 15.8125 121.375 18 121.375 20.5625C121.375 23.125 122.25 25.3125 124 27.125C125.75 28.9375 127.875 29.8125 130.375 29.8125C132.438 29.8125 134.25 29.25 135.813 28.1875V29.4375H140.125V11.625H135.813V12.875ZM135.813 23.5625C134.688 25.25 133.063 26.0625 131 26.0625C129.5 26.0625 128.25 25.5 127.25 24.4375C126.25 23.375 125.75 22.0625 125.75 20.5C125.75 19 126.25 17.6875 127.25 16.5625C128.25 15.4375 129.563 14.9375 131 14.9375C133.063 14.9375 134.688 15.75 135.813 17.4375V23.5625Z" fill="#71802F"/>
<path d="M153.25 11.0625C151.187 11.0625 149.375 11.75 147.75 13.125V11.6875H143.375V29.5H147.75V17.625C149.125 15.9375 150.687 15.0625 152.312 15.0625C153.687 15.0625 154.75 15.5 155.5 16.3125C156.25 17.125 156.687 18.375 156.687 19.875V29.4375H161V19.625C161 17.0625 160.312 15 158.875 13.4375C157.437 11.875 155.562 11.0625 153.25 11.0625Z" fill="#71802F"/>
<path d="M172.313 15.1875C173.438 15.1875 174.375 15.5 175.125 16.0625C175.875 16.625 176.375 17.375 176.562 18.3125H181C180.75 16.25 179.812 14.5625 178.125 13.25C176.5 11.9375 174.563 11.25 172.313 11.25C169.625 11.25 167.437 12.125 165.562 13.9375C163.75 15.6875 162.875 17.9375 162.875 20.625C162.875 23.3125 163.75 25.5 165.562 27.25C167.375 29 169.625 29.9375 172.313 29.9375C174.625 29.9375 176.562 29.3125 178.188 28C179.812 26.6875 180.75 24.9375 181.063 22.875H176.625C176.438 23.8125 175.937 24.5625 175.187 25.1875C174.437 25.75 173.5 26.0625 172.375 26.0625C170.875 26.0625 169.687 25.5625 168.687 24.5C167.75 23.5 167.25 22.1875 167.25 20.6875C167.25 19.1875 167.75 17.875 168.687 16.875C169.625 15.6875 170.875 15.1875 172.313 15.1875Z" fill="#71802F"/>
<path d="M191.75 11.25C188.937 11.25 186.687 12.125 184.875 13.9375C183.125 15.6875 182.25 17.9375 182.25 20.625C182.25 23.3125 183.125 25.5 184.875 27.3125C186.625 29.0625 188.937 29.9375 191.75 29.9375C193.812 29.9375 195.562 29.4375 197.062 28.5C198.562 27.5625 199.562 26.25 200.062 24.625H195.438C194.813 25.75 193.562 26.25 191.812 26.25C190.437 26.25 189.25 25.875 188.375 25.1875C187.5 24.5 186.938 23.5625 186.625 22.3125H200.25H200.312C200.375 21.875 200.438 21.1875 200.438 20.3125C200.438 17.625 199.563 15.5 197.938 13.8125C196.313 12.0625 194.312 11.25 191.75 11.25ZM186.688 19C186.938 17.75 187.5 16.75 188.312 16C189.187 15.25 190.25 14.875 191.562 14.875C192.812 14.875 193.875 15.25 194.625 15.9375C195.375 16.6875 195.875 17.6875 196.063 18.9375H186.688V19Z" fill="#71802F"/>
<path d="M212.187 19L208.875 18.5C207.188 18.25 206.375 17.5625 206.375 16.4375C206.375 15.875 206.688 15.4375 207.25 15.0625C207.812 14.6875 208.625 14.5 209.562 14.5C210.687 14.5 211.562 14.75 212.25 15.1875C212.938 15.625 213.312 16.25 213.375 17.125L217.375 17.0625C217.187 14.75 216.187 13.1875 214.375 12.3125C212.875 11.5625 211.188 11.1875 209.5 11.1875C207.25 11.1875 205.437 11.6875 204.062 12.75C202.687 13.75 202 15.1875 202 16.9375C202 19.75 203.75 21.5 207.25 22.0625L211.125 22.6875C212.562 22.9375 213.25 23.5625 213.25 24.5625C213.25 25.1875 212.938 25.625 212.25 26C211.562 26.375 210.75 26.5 209.687 26.5C207.125 26.5 205.687 25.5 205.312 23.5L201.312 23.4375C201.5 25.625 202.375 27.3125 203.812 28.375C205.25 29.4375 207.187 30 209.562 30C211.937 30 213.812 29.5 215.25 28.4375C216.687 27.375 217.375 25.9375 217.375 24.125C217.5 21.25 215.687 19.5625 212.187 19Z" fill="#71802F"/>
<path d="M81.75 7.125V29.4375H85.75V18.8125V15.875H93.125V12.25H85.8125V7.1875C85.8125 5.5 87.1875 4.0625 88.9375 4.0625H93.125V0H88.9375C84.9375 0 81.75 3.1875 81.75 7.125Z" fill="#71802F"/>
<path d="M99.6875 11.625H95.375V29.4375H99.6875V11.625Z" fill="#71802F"/>
<path d="M99.6875 4H95.375V8.3125H99.6875V4Z" fill="#71802F"/>
<path d="M31.375 20.5625C31.375 23.25 30.5 25.5 28.6875 27.3125C26.875 29.125 24.625 30 21.9375 30C19.25 30 17 29.125 15.1875 27.3125C13.375 25.5 12.5 23.25 12.5 20.5625C12.5 17.875 13.375 15.6875 15.1875 13.875C17 12.125 19.25 11.1875 21.9375 11.1875C24.625 11.1875 26.875 12.0625 28.6875 13.875C30.5 15.6875 31.375 17.875 31.375 20.5625ZM27.0625 20.5625C27.0625 19.0625 26.5625 17.75 25.625 16.75C24.6875 15.75 23.4375 15.1875 21.9375 15.1875C20.4375 15.1875 19.1875 15.6875 18.25 16.75C17.3125 17.75 16.8125 19.0625 16.8125 20.5625C16.8125 22.0625 17.3125 23.375 18.25 24.5C19.25 25.5625 20.5 26.0625 22 26.0625C23.5 26.0625 24.75 25.5625 25.6875 24.5C26.5625 23.375 27.0625 22.0625 27.0625 20.5625Z" fill="#3C2D28"/>
<path d="M45 8.875H43.0625V6.9375C43.0625 3.125 46.1875 0 50 0H51.9375V1.9375C51.9375 5.8125 48.875 8.875 45 8.875Z" fill="#759641"/>
<path d="M40.5625 8.87499H41.9375V7.49999C41.9375 4.81249 39.75 2.68749 37.125 2.68749H35.75V4.06249C35.75 6.74999 37.875 8.87499 40.5625 8.87499Z" fill="#759641"/>
</svg>
