<svg width="53" height="61" fill="none" xmlns="http://www.w3.org/2000/svg"><g clip-path="url(#clip0_10_1696)"><path fill-rule="evenodd" clip-rule="evenodd" d="M16.8 44.25l-4.8-6.6 7.7-7.9c.15-.15.25-.4.25-.6v-3.5l5.95.1c.25 0 .45-.1.65-.25l1.8-1.8c.35-.35.35-.9 0-1.25a.875.875 0 00-1.25 0l-1.55 1.5-8.45-.1c-.2 0-.4.05-.55.2L12 27.65 8.45 23.4l.4-3.25 10.2-9.65c.2-.2.3-.5.25-.8L18.8 7a6.933 6.933 0 00-3.1-4.2c6.5-2.7 14.95-3.85 20.65.35 3.45 2.55 5.6 6.5 5.95 10.75v22.25l-6.65 3.6c-.3.15-.45.45-.45.75v6.75H16.95v-2.5c0-.2-.05-.35-.15-.5zM4.15 49h43.8v4.85H4.15V49zm47.9 11.4H0v-4.85h52.05v4.85z" fill="#fff"/></g><defs><clipPath id="clip0_10_1696"><path fill="#fff" transform="translate(0 .4)" d="M0 0h52.05v60H0z"/></clipPath></defs></svg>