<svg width="122" height="171" fill="none" xmlns="http://www.w3.org/2000/svg"><rect y="48.4" width="122" height="122" rx="61" fill="#F2D24C"/><g clip-path="url(#clip0_10_1694)"><path fill-rule="evenodd" clip-rule="evenodd" d="M51.8 123.25l-4.8-6.6 7.7-7.9c.15-.15.25-.4.25-.6v-3.5l5.95.1c.25 0 .45-.1.65-.25l1.8-1.8c.35-.35.35-.9 0-1.25a.875.875 0 00-1.25 0l-1.55 1.5-8.45-.1c-.2 0-.4.05-.55.2l-4.55 3.6-3.55-4.25.4-3.25 10.2-9.65c.2-.2.3-.5.25-.8l-.5-2.7a6.933 6.933 0 00-3.1-4.2c6.5-2.7 14.95-3.85 20.65.35 3.45 2.55 5.6 6.5 5.95 10.75v22.25l-6.65 3.6c-.3.15-.45.45-.45.75v6.75H51.95v-2.5c0-.2-.05-.35-.15-.5zM39.15 128h43.8v4.85h-43.8V128zm47.9 11.4H35v-4.85h52.05v4.85z" fill="#fff"/></g><path d="M74.002 44.624h-9.776v-9.776C64.226 15.562 79.788 0 99.007 0h9.776v9.776c0 19.22-15.561 34.848-34.78 34.848zm-22.345 0h6.784v-6.85c0-13.367-10.84-24.207-24.208-24.207H27.45v6.783c0 13.434 10.84 24.274 24.207 24.274z" fill="#6BA90A"/><defs><clipPath id="clip0_10_1694"><path fill="#fff" transform="translate(35 79.4)" d="M0 0h52.05v60H0z"/></clipPath></defs></svg>