<svg width="873" height="959" fill="none" xmlns="http://www.w3.org/2000/svg"><path d="M348.258 613.05l-.299-172.974h.299c94.919 0 172.974 78.055 172.974 172.974H348.258z" fill="#FFCB00"/><path d="M348.407 613.05l-.15-151.782h.15c83.278 0 151.782 68.504 151.782 151.782H348.407z" fill="#FFFAD3"/><path d="M175.431 613.05c-47.758-.447-86.264-39.251-86.264-87.01 0-47.907 38.506-86.711 86.264-87.009V613.05z" fill="#5180B1"/><path d="M.218 613.05c49.25-.447 89.099-39.251 89.099-87.01 0-47.907-39.849-86.711-89.1-87.009V613.05z" fill="#5180B1"/><path d="M87.974 440.672c48.466 0 87.755-39.289 87.755-87.756 0-48.466-39.289-87.755-87.756-87.755-48.466 0-87.755 39.289-87.755 87.755 0 48.467 39.29 87.756 87.755 87.756z" fill="#FF4C00"/><path d="M175.58 351.573c-47.758-.149-86.562-38.654-87.308-86.263h-.597c-.895 47.609-39.55 86.114-87.457 86.263 48.355.15 87.308 39.401 87.308 87.607v1.343h.597v-1.343c0-48.206 39.102-87.457 87.457-87.607z" fill="#fff"/><path d="M173.789 177.554c.448 49.251 39.252 89.099 87.01 89.099 47.908 0 86.711-39.848 87.01-89.099h-174.02z" fill="#FFCB00"/><ellipse cx="261" cy="90" rx="87" ry="88" fill="#FFCB00"/><path d="M348.555 266.653v-1.343c-48.355.149-87.308 39.4-87.308 87.607v1.343c48.206-.15 87.308-39.252 87.308-87.607zm-175.214-1.343v1.343c0 48.355 39.103 87.457 87.309 87.607v-1.343c0-48.356-39.102-87.458-87.309-87.607z" fill="#FF7B67"/><path d="M523.62 179.046v-1.343c-48.355.149-87.308 39.401-87.308 87.607v1.343c48.206-.149 87.308-39.401 87.308-87.607zm-175.362-1.492v1.343c0 48.355 39.102 87.457 87.308 87.607v-1.344c.149-48.206-38.953-87.457-87.308-87.606zM523.62 92.633V91.29c-48.355.15-87.308 39.401-87.308 87.607v1.343c48.206 0 87.308-39.251 87.308-87.607zM348.257 91.29v1.343c0 48.356 39.102 87.458 87.309 87.607v-1.343c.149-48.206-38.953-87.457-87.309-87.607zM523.62 1.343V0c-48.355.15-87.308 39.4-87.308 87.607v1.343c48.206 0 87.308-39.252 87.308-87.607zM348.257 0v1.343c0 48.355 39.102 87.458 87.309 87.607v-1.343C435.715 39.4 396.613.149 348.257 0z" fill="#AB82A5"/><path d="M696.893 441.419c-47.758-.448-86.263-39.252-86.263-87.01 0-47.908 38.505-86.711 86.263-87.01v174.02zm-86.263 0c-49.251-.448-89.099-39.252-89.099-87.01 0-47.908 39.848-86.711 89.099-87.01v174.02z" fill="#FFD860"/><path d="M859.57 132.034l11.641-11.641h-15.372v-14.924h-15.372V89.798l-12.387 12.387c-12.835-7.164-27.461-11.342-43.132-11.342-48.654 0-88.204 39.549-88.204 88.203s39.55 88.204 88.204 88.204c48.654 0 88.204-39.55 88.204-88.204 0-17.312-5.075-33.431-13.582-47.012z" fill="#FF4C00"/><path d="M.218 252.027v15.82c95.964-2.09 173.124-80.294 173.721-176.557h-15.82C157.522 178.897 87.526 249.938.218 252.027z" fill="#6BA90A"/><path d="M158.119 91.29h-16.567c-.597 78.354-63.28 142.081-141.334 144.022v16.566c87.308-1.94 157.304-72.981 157.901-160.588z" fill="#94D00D"/><path d="M141.552 91.29H83.347c-.448 46.266-37.162 83.876-83.13 85.965v58.206c78.056-2.09 140.738-65.817 141.335-144.17z" fill="#FCF78D"/><path d="M83.347 91.29H.217v85.965c45.968-2.089 82.682-39.699 83.13-85.965z" fill="#93602F"/><path d="M537.351 91.29h-15.82c.895 95.666 77.458 173.423 172.825 175.96v-15.82c-86.562-2.537-156.11-73.13-157.005-160.14z" fill="#759641"/><path d="M694.357 251.43v-21.64c-74.772-2.538-134.619-63.43-135.515-138.5h-21.491c.895 87.01 70.444 157.603 157.006 160.14z" fill="#FFFAD3"/><path d="M694.356 229.789V91.29H558.842c.896 75.07 60.892 135.962 135.514 138.499z" fill="#FCEF00"/><path d="M741.518 352.916c24.233 0 43.878-19.644 43.878-43.878 0-24.233-19.645-43.877-43.878-43.877s-43.878 19.644-43.878 43.877c0 24.234 19.645 43.878 43.878 43.878z" fill="#5180B1"/><path d="M829.274 352.916c24.233 0 43.878-19.644 43.878-43.878 0-24.233-19.645-43.877-43.878-43.877s-43.878 19.644-43.878 43.877c0 24.234 19.645 43.878 43.878 43.878zm-87.756 87.756c24.233 0 43.878-19.644 43.878-43.878 0-24.233-19.645-43.877-43.878-43.877s-43.878 19.644-43.878 43.877c0 24.234 19.645 43.878 43.878 43.878z" fill="#5180B1"/><path d="M829.274 440.672c24.233 0 43.878-19.644 43.878-43.878 0-24.233-19.645-43.878-43.878-43.878s-43.878 19.645-43.878 43.878c0 24.234 19.645 43.878 43.878 43.878z" fill="#5180B1"/><path d="M348.107 613.647l-172.975-.149c0-45.818 18.208-89.696 50.594-122.232 32.387-32.386 76.265-50.594 122.083-50.743l.298 173.124z" fill="#FF9000"/><path d="M348.107 613.05l-.149 172.975c-45.818 0-89.696-18.208-122.082-50.594-32.386-32.386-50.744-76.264-50.744-122.082l172.975-.299z" fill="#FFCB00"/><path d="M347.661 440.672h87.308c47.758 0 86.562-38.803 86.562-86.562v-88.8h-87.308c-47.759 0-86.562 38.803-86.562 86.562v88.8z" fill="#6BA90A"/><path d="M347.66 440.673h-85.518c-47.758 0-86.562-38.804-86.562-86.562h85.517c47.908-.15 86.563 38.654 86.563 86.562z" fill="#BEDD3A"/><path d="M401.239 490.669l-34.923-9.253c-5.82-1.492-11.641 3.134-11.641 9.403l-1.045 100.292c0 2.687 3.433 3.731 4.776 1.194l48.356-87.905c2.984-5.224.298-12.089-5.523-13.731zm51.042 41.938l-25.819-25.222c-4.328-4.179-11.641-2.985-14.775 2.388l-50.445 86.711c-1.343 2.388 1.194 4.925 3.582 3.433l85.517-52.534c5.224-3.284 6.268-10.597 1.94-14.776zm26.566 59.698l-9.999-34.774c-1.642-5.82-8.656-8.358-14.029-5.223l-86.712 50.444c-2.387 1.344-1.343 4.925 1.344 4.776l100.292-3.432c6.268-.15 10.746-5.97 9.104-11.791z" fill="#FFCB00"/><path d="M348.108 613.05l172.975.448c-.298 94.77-78.204 172.676-172.975 172.676h-.149l.149-173.124z" fill="#FF4C00"/><path d="M88.72 656.182v-.746c-24.029.149-43.58 19.551-43.58 43.729v.746c24.029-.149 43.58-19.701 43.58-43.729zm-87.458-.746v.746c0 24.028 19.551 43.58 43.58 43.729v-.746c0-24.029-19.402-43.58-43.58-43.729zM88.72 613.05v-.746c-24.029.149-43.58 19.551-43.58 43.729v.746c24.029 0 43.58-19.551 43.58-43.729zm-87.458-.597v.746c0 24.029 19.551 43.58 43.58 43.729v-.746c0-24.178-19.402-43.729-43.58-43.729zM88.72 742.446v-.747c-24.029.15-43.58 19.551-43.58 43.729v.746c24.029-.149 43.58-19.7 43.58-43.728zm-87.458-.747v.746c0 24.029 19.551 43.58 43.58 43.729v-.746c0-24.028-19.402-43.58-43.58-43.729zm87.458-42.385v-.746c-24.029.149-43.58 19.551-43.58 43.728v.746c24.029 0 43.58-19.551 43.58-43.728zm-87.458-.597v.746c0 24.028 19.551 43.579 43.58 43.729v-.746c0-24.178-19.402-43.729-43.58-43.729zm174.766-42.535v-.746c-24.028.149-43.579 19.551-43.579 43.729v.746c24.028-.149 43.579-19.701 43.579-43.729z" fill="#FFD860"/><path d="M88.57 655.436v.746c0 24.028 19.552 43.58 43.58 43.729v-.746c0-24.029-19.551-43.58-43.58-43.729zm87.458-42.386v-.746c-24.028.149-43.579 19.551-43.579 43.729v.746c24.028 0 43.579-19.551 43.579-43.729zm-87.458-.597v.746c0 24.029 19.552 43.58 43.58 43.729v-.746c0-24.178-19.551-43.729-43.58-43.729zm87.458 129.993v-.747c-24.028.15-43.579 19.551-43.579 43.729v.746c24.028-.149 43.579-19.7 43.579-43.728zm-87.458-.747v.746c0 24.029 19.552 43.58 43.58 43.729v-.746c0-24.028-19.551-43.58-43.58-43.729zm87.458-42.385v-.746c-24.028.149-43.579 19.551-43.579 43.728v.746c24.028 0 43.579-19.551 43.579-43.728zm-87.458-.597v.746c0 24.028 19.552 43.579 43.58 43.729v-.746c0-24.178-19.551-43.729-43.58-43.729z" fill="#FFD860"/><path d="M1.262 798.114v-15.82c95.965 2.089 173.124 80.144 173.721 176.557h-15.82c-.597-87.607-70.742-158.648-157.9-160.737z" fill="#93602F"/><path d="M159.163 958.85h-16.566C142 880.348 79.317 816.769 1.262 814.68v-16.566c87.16 2.089 157.304 73.13 157.901 160.736z" fill="#BCDB30"/><path d="M142.597 958.851H84.392c-.597-46.266-37.162-83.876-83.13-85.965V814.68C79.317 816.77 142 880.348 142.597 958.851z" fill="#94D00D"/><path d="M91.257 958.851H1.262v-92.98c49.699 2.239 89.398 42.833 89.995 92.98z" fill="#6BA90A"/><path d="M56.483 958.851H1.263V901.69c30.594 1.343 54.921 26.416 55.22 57.161z" fill="#FCF78D"/><path d="M20.813 879.293c-1.94-.448-3.88.746-4.328 2.687L13.5 894.367c-.447 1.94.746 3.88 2.687 4.328.298 0 .597.149.895.149 1.642 0 3.134-1.044 3.433-2.686L23.5 883.77c.447-1.94-.747-3.88-2.687-4.477zm26.864 11.651c-1.641-1.194-3.88-.746-4.925.896l-7.313 10.298c-1.194 1.641-.746 3.88.896 4.925.597.447 1.343.597 2.09.597 1.044 0 2.238-.597 2.984-1.493l7.313-10.298c.895-1.641.597-3.88-1.045-4.925zm20.298 20.148c-1.045-1.641-3.284-2.089-4.925-.895l-10.448 7.014c-1.641 1.045-2.09 3.284-.895 4.925.746 1.045 1.79 1.642 2.985 1.642.746 0 1.343-.149 1.94-.597l10.447-7.014c1.642-1.344 2.09-3.433.896-5.075zm11.193 27.76c-.299-1.94-1.94-3.284-4.03-3.134l-12.536 1.492c-1.94.299-3.284 2.09-3.134 4.03.298 1.791 1.79 3.134 3.581 3.134h.448l12.537-1.493c2.09-.298 3.432-2.089 3.134-4.029z" fill="#1E1E1C"/><path d="M347.511 958.851c.448-47.759 39.252-86.264 87.01-86.264 47.908 0 86.711 38.505 87.01 86.264h-174.02zm0-86.413c.448-49.251 39.252-89.099 87.01-89.099 47.908 0 86.711 39.848 87.01 89.099h-174.02z" fill="#FF7B67"/><path d="M346.764 787.816v-1.343c-46.415.149-84.025 37.46-84.771 83.726-.149.299-.149.597-.298.896-.15-.299-.15-.597-.299-1.045-.895-46.266-38.505-83.428-84.771-83.577v1.343c0 45.669 35.968 82.98 81.189 85.07 1.791 13.432-2.537 27.61-12.536 37.908 1.044 1.641 2.238 3.134 3.582 4.626l.447.448a44.663 44.663 0 0012.388-19.7c2.238 7.313 6.268 14.178 12.387 19.7l.448-.448c1.343-1.492 2.537-2.985 3.581-4.626-9.999-10.447-14.178-24.476-12.536-37.908 45.221-2.09 81.189-39.401 81.189-85.07z" fill="#759641"/><path d="M218.563 958.851c23.821 0 43.131-19.311 43.131-43.132 0-23.821-19.31-43.132-43.131-43.132s-43.132 19.311-43.132 43.132c0 23.821 19.311 43.132 43.132 43.132z" fill="#FF4C00"/><path d="M304.677 958.851c23.821 0 43.132-19.311 43.132-43.132 0-23.821-19.311-43.132-43.132-43.132-23.821 0-43.132 19.311-43.132 43.132 0 23.821 19.311 43.132 43.132 43.132z" fill="#FF4C00"/><path d="M691.819 614.393v-1.343c-45.818.149-82.98 37.311-82.98 83.279v1.343c45.818-.149 82.98-37.46 82.98-83.279zm-166.557-1.343v1.343c0 45.819 37.162 83.13 82.98 83.279v-1.343c0-45.818-37.162-83.13-82.98-83.279zm166.557 167.901v1.343c-45.818-.149-82.98-37.311-82.98-83.279v-1.343c45.818.149 82.98 37.311 82.98 83.279z" fill="#AB82A5"/><path d="M525.262 782.145v-1.344c0-45.818 37.162-83.129 82.98-83.278v1.343c0 45.967-37.162 83.129-82.98 83.279z" fill="#AB82A5"/><path d="M873.152 871.095v-1.344c-48.206.15-87.308 39.401-87.308 87.607v1.343c48.206 0 87.308-39.251 87.308-87.606zm-175.214-1.344v1.344c0 48.355 39.103 87.457 87.309 87.606v-1.343c0-48.206-39.102-87.457-87.309-87.607zm175.214-86.114v-1.343c-49.4.149-89.398 39.401-89.398 87.607v1.343c49.4-.149 89.398-39.401 89.398-87.607zm-179.542-1.492v1.343c0 48.355 39.998 87.457 89.398 87.607v-1.344c0-48.206-39.998-87.308-89.398-87.606z" fill="#759641"/><path d="M710.027 782.145H693.61c.896-99.547 80.443-180.139 179.542-182.825v16.417c-89.995 2.686-162.229 76.115-163.125 166.408z" fill="#00AA41"/><path d="M873.152 615.886v22.387c-77.608 2.686-139.843 65.966-140.738 144.021h-22.387c.896-90.442 73.13-163.871 163.125-166.408z" fill="#FFFAD3"/><path d="M873.152 638.273v144.021H732.414c.746-78.204 62.981-141.484 140.738-144.021z" fill="#FF4C00"/><path d="M855.988 706.179c1.941-.448 4.03.746 4.478 2.686L863.6 721.7c.448 1.941-.746 4.03-2.686 4.478-.299 0-.597.149-.896.149-1.642 0-3.134-1.194-3.582-2.836l-3.134-12.835c-.448-1.94.746-3.88 2.686-4.477zm-27.908 11.044c1.642-1.194 4.029-.746 5.223.896l7.612 10.745c1.194 1.642.746 4.03-.896 5.224-.597.448-1.343.746-2.089.746-1.194 0-2.239-.597-2.985-1.492l-7.611-10.746c-1.194-1.791-.896-4.179.746-5.373zm-21.044 21.044c1.194-1.642 3.433-2.09 5.224-1.045l10.895 7.313c1.642 1.194 2.089 3.433 1.045 5.224-.747 1.044-1.941 1.641-3.135 1.641-.746 0-1.492-.149-2.089-.597l-10.895-7.313c-1.791-1.194-2.239-3.581-1.045-5.223zm-11.641 28.804c.299-2.089 2.09-3.433 4.179-3.283l12.984 1.641c2.09.299 3.433 2.09 3.284 4.179-.299 1.94-1.791 3.284-3.731 3.284h-.448l-12.984-1.642c-2.09-.299-3.582-2.09-3.284-4.179z" fill="#1E1E1C"/><path d="M608.541 441.419c-48.356 0-87.607 39.251-87.607 87.606 0 48.356 39.251 87.607 87.607 87.607 48.355 0 87.607-39.251 87.607-87.607 0-48.504-39.252-87.606-87.607-87.606zm0 125.664c-21.044 0-38.207-17.014-38.207-38.207 0-21.043 17.014-38.206 38.207-38.206 21.043 0 38.207 17.013 38.207 38.206s-17.164 38.207-38.207 38.207z" fill="#FF7B67"/><path d="M873.152 529.473v-88.204c-47.759.448-86.264 39.252-86.264 87.01 0-47.907-38.505-86.711-86.263-87.01v90.891h.149c1.791 46.116 39.699 82.98 86.263 82.98 46.565 0 84.473-36.864 86.264-82.98h.149v-2.687h-.298z" fill="#FFCB00"/><path d="M637.942 782.891c-10.149 0-19.7 3.731-28.058 10.298-8.358-6.567-17.909-10.298-28.058-10.298-33.132 0-59.997 39.401-59.997 88.054 0 48.654 26.865 88.055 59.997 88.055 10.149 0 19.7-3.731 28.058-10.298 8.358 6.567 17.909 10.298 28.058 10.298 33.132 0 59.996-39.401 59.996-88.055 0-48.653-26.864-88.054-59.996-88.054z" fill="#BCDB30"/></svg>