<svg width="768" height="602" fill="none" xmlns="http://www.w3.org/2000/svg"><path d="M326.375 383.817l-.187-108.295h.187c59.427 0 108.295 48.868 108.295 108.295H326.375z" fill="#FFCB00"/><path d="M326.468 383.817l-.093-95.027h.093c52.139 0 95.027 42.888 95.027 95.027h-95.027z" fill="#FFFAD3"/><path d="M218.172 383.817c-29.901-.28-54.008-24.574-54.008-54.475 0-29.993 24.107-54.288 54.008-54.474v108.949z" fill="#5180B1"/><path d="M108.475 383.817c30.834-.28 55.783-24.574 55.783-54.475 0-29.993-24.949-54.288-55.783-54.474v108.949z" fill="#5180B1"/><path d="M108.936 383.817c-30.835-.28-55.783-24.574-55.783-54.475 0-29.993 24.948-54.288 55.783-54.474v108.949z" fill="#5180B1"/><path d="M163.417 275.895c30.343 0 54.942-24.598 54.942-54.942 0-30.343-24.599-54.942-54.942-54.942-30.344 0-54.942 24.599-54.942 54.942 0 30.344 24.598 54.942 54.942 54.942z" fill="#FF4C00"/><path d="M218.265 220.112c-29.9-.093-54.194-24.2-54.661-54.007h-.374c-.561 29.807-24.761 53.914-54.755 54.007 30.274.094 54.661 24.668 54.661 54.849v.841h.374v-.841c0-30.181 24.481-54.755 54.755-54.849z" fill="#fff"/><path d="M217.144 111.163c.28 30.834 24.574 55.783 54.475 55.783 29.994 0 54.288-24.949 54.475-55.783h-108.95z" fill="#FFCB00"/><ellipse cx="271.745" cy="56.347" rx="54.469" ry="55.095" fill="#FFCB00"/><path d="M326.561 166.946v-.841c-30.274.093-54.662 24.667-54.662 54.848v.841c30.181-.093 54.662-24.574 54.662-54.848zm-109.697-.841v.841c0 30.274 24.481 54.755 54.661 54.848v-.841c0-30.274-24.481-54.755-54.661-54.848z" fill="#FF7B67"/><path d="M436.165 112.097v-.841c-30.274.093-54.662 24.668-54.662 54.849v.841c30.181-.094 54.662-24.668 54.662-54.849zm-109.79-.934v.84c0 30.275 24.481 54.756 54.661 54.849v-.841c.094-30.181-24.387-54.755-54.661-54.848zm109.79-53.167v-.841c-30.274.093-54.662 24.668-54.662 54.848v.841c30.181 0 54.662-24.574 54.662-54.848zm-109.79-.841v.84c0 30.275 24.481 54.756 54.661 54.849v-.841c.094-30.18-24.387-54.755-54.661-54.848zM436.165.841V0c-30.274.093-54.662 24.668-54.662 54.849v.84c30.181 0 54.662-24.574 54.662-54.848zM326.375 0v.841c0 30.274 24.481 54.755 54.661 54.849v-.841C381.13 24.668 356.649.093 326.375 0z" fill="#AB82A5"/><path d="M544.648 276.363c-29.9-.281-54.008-24.575-54.008-54.475 0-29.994 24.108-54.288 54.008-54.475v108.95zm-54.008 0c-30.835-.281-55.783-24.575-55.783-54.475 0-29.994 24.948-54.288 55.783-54.475v108.95zM655.187 601.17c30.723-.288 55.494-25.251 55.494-55.975 0-30.82-24.771-55.783-55.494-55.975v111.95zm55.494 0c31.684-.288 57.319-25.251 57.319-55.975 0-30.82-25.635-55.783-57.319-55.975v111.95z" fill="#FFD860"/><path d="M646.497 82.664l7.288-7.288h-9.624v-9.344h-9.625V56.22l-7.755 7.755c-8.036-4.485-17.193-7.101-27.004-7.101-30.461 0-55.222 24.76-55.222 55.222 0 30.461 24.761 55.222 55.222 55.222 30.461 0 55.223-24.761 55.223-55.222 0-10.839-3.177-20.93-8.503-29.433z" fill="#FF4C00"/><path d="M108.475 157.789v9.904c60.081-1.308 108.389-50.27 108.763-110.538h-9.905c-.374 54.849-44.197 99.325-98.858 100.634z" fill="#6BA90A"/><path d="M207.333 57.155h-10.372c-.373 49.055-39.618 88.954-88.486 90.168v10.372c54.661-1.215 98.484-45.691 98.858-100.54z" fill="#94D00D"/><path d="M196.961 57.155H160.52c-.28 28.966-23.266 52.513-52.045 53.821v36.441c48.868-1.308 88.113-41.207 88.486-90.262z" fill="#FCF78D"/><path d="M160.52 57.155h-52.045v53.821c28.779-1.308 51.765-24.855 52.045-53.821z" fill="#93602F"/><path d="M109.848 157.789v9.904C49.766 166.385 1.458 117.423 1.085 57.155h9.904c.374 54.849 44.197 99.325 98.859 100.634z" fill="#6BA90A"/><path d="M10.99 57.155h10.37c.374 49.055 39.618 88.954 88.487 90.168v10.372c-54.662-1.215-98.485-45.691-98.859-100.54z" fill="#94D00D"/><path d="M21.361 57.155h36.441c.28 28.966 23.267 52.513 52.046 53.821v36.441c-48.869-1.308-88.113-41.207-88.487-90.262z" fill="#FCF78D"/><path d="M57.802 57.155h52.046v53.821c-28.78-1.308-51.765-24.855-52.046-53.821z" fill="#93602F"/><path d="M444.762 57.155h-9.905c.561 59.894 48.495 108.576 108.202 110.164v-9.904c-54.194-1.589-97.737-45.785-98.297-100.26z" fill="#759641"/><path d="M543.06 157.415v-13.549c-46.813-1.588-84.282-39.711-84.843-86.711h-13.455c.561 54.475 44.103 98.671 98.298 100.26z" fill="#FFFAD3"/><path d="M543.06 143.866V57.155h-84.843c.561 47 38.123 85.123 84.843 86.711z" fill="#FCEF00"/><path d="M572.587 220.953c15.171 0 27.471-12.299 27.471-27.471s-12.3-27.471-27.471-27.471c-15.172 0-27.472 12.299-27.472 27.471s12.3 27.471 27.472 27.471z" fill="#5180B1"/><path d="M627.528 220.953c15.172 0 27.472-12.299 27.472-27.471s-12.3-27.471-27.472-27.471c-15.171 0-27.471 12.299-27.471 27.471s12.3 27.471 27.471 27.471zm-54.941 54.942c15.171 0 27.471-12.299 27.471-27.471 0-15.171-12.3-27.471-27.471-27.471-15.172 0-27.472 12.3-27.472 27.471 0 15.172 12.3 27.471 27.472 27.471z" fill="#5180B1"/><path d="M627.528 275.895c15.172 0 27.472-12.299 27.472-27.471s-12.3-27.471-27.472-27.471c-15.171 0-27.471 12.299-27.471 27.471s12.3 27.471 27.471 27.471z" fill="#5180B1"/><path d="M326.281 384.191l-108.296-.093c0-28.686 11.399-56.157 31.676-76.527 20.276-20.276 47.747-31.676 76.433-31.769l.187 108.389z" fill="#FF9000"/><path d="M326.281 383.817l-.094 108.296c-28.686 0-56.157-11.4-76.433-31.676-20.276-20.276-31.769-47.747-31.769-76.433l108.296-.187z" fill="#FFCB00"/><path d="M326.001 275.895h54.662c29.9 0 54.194-24.294 54.194-54.194v-55.596h-54.662c-29.9 0-54.194 24.294-54.194 54.194v55.596z" fill="#6BA90A"/><path d="M326 275.895h-53.54c-29.901 0-54.195-24.294-54.195-54.194h53.541C301.8 221.607 326 245.902 326 275.895z" fill="#BEDD3A"/><path d="M359.545 307.197l-21.864-5.793c-3.645-.934-7.289 1.962-7.289 5.887l-.654 62.791c0 1.682 2.149 2.336 2.99.747l30.275-55.035c1.868-3.271.186-7.569-3.458-8.597zm31.956 26.257l-16.165-15.791c-2.709-2.617-7.288-1.869-9.25 1.495l-31.582 54.288c-.841 1.495.747 3.083 2.242 2.149l53.541-32.891c3.27-2.055 3.924-6.634 1.214-9.25zm16.633 37.375l-6.261-21.771c-1.028-3.644-5.419-5.233-8.783-3.27l-54.288 31.582c-1.495.841-.841 3.083.841 2.99l62.791-2.149c3.924-.093 6.727-3.738 5.7-7.382z" fill="#FFCB00"/><path d="M326.281 383.817l108.296.281c-.187 59.333-48.962 108.108-108.296 108.108h-.093l.093-108.389z" fill="#FF4C00"/><path d="M163.884 410.821v-.467c-15.044.094-27.284 12.241-27.284 27.378v.467c15.043-.094 27.284-12.334 27.284-27.378zm-54.755-.467v.467c0 15.044 12.24 27.284 27.284 27.378v-.467c0-15.044-12.147-27.284-27.284-27.378zm54.755-26.537v-.467c-15.044.094-27.284 12.241-27.284 27.378v.467c15.043 0 27.284-12.241 27.284-27.378zm-54.755-.373v.467c0 15.043 12.24 27.284 27.284 27.377v-.467c0-15.137-12.147-27.377-27.284-27.377zm54.755 81.385v-.467c-15.044.093-27.284 12.24-27.284 27.377v.468c15.043-.094 27.284-12.334 27.284-27.378zm-54.755-.467v.467c0 15.044 12.24 27.284 27.284 27.378v-.468c0-15.043-12.147-27.284-27.284-27.377zm54.755-26.537v-.467c-15.044.093-27.284 12.24-27.284 27.377v.468c15.043 0 27.284-12.241 27.284-27.378zm-54.755-.374v.468c0 15.043 12.24 27.284 27.284 27.377v-.467c0-15.137-12.147-27.378-27.284-27.378zm109.417-26.63v-.467c-15.044.094-27.285 12.241-27.285 27.378v.467c15.044-.094 27.285-12.334 27.285-27.378z" fill="#FFD860"/><path d="M163.79 410.354v.467c0 15.044 12.241 27.284 27.284 27.378v-.467c0-15.044-12.24-27.284-27.284-27.378zm54.756-26.537v-.467c-15.044.094-27.285 12.241-27.285 27.378v.467c15.044 0 27.285-12.241 27.285-27.378zm-54.756-.373v.467c0 15.043 12.241 27.284 27.284 27.377v-.467c0-15.137-12.24-27.377-27.284-27.377zm54.756 81.385v-.467c-15.044.093-27.285 12.24-27.285 27.377v.468c15.044-.094 27.285-12.334 27.285-27.378zm-54.756-.467v.467c0 15.044 12.241 27.284 27.284 27.378v-.468c0-15.043-12.24-27.284-27.284-27.377zm54.756-26.537v-.467c-15.044.093-27.285 12.24-27.285 27.377v.468c15.044 0 27.285-12.241 27.285-27.378zm-54.756-.374v.468c0 15.043 12.241 27.284 27.284 27.377v-.467c0-15.137-12.24-27.378-27.284-27.378z" fill="#FFD860"/><path d="M109.129 499.682v-9.905c60.081 1.308 108.389 50.177 108.763 110.538h-9.905c-.374-54.848-44.29-99.325-98.858-100.633z" fill="#93602F"/><path d="M207.987 600.315h-10.372c-.374-49.149-39.618-88.954-88.486-90.262v-10.371c54.568 1.308 98.484 45.785 98.858 100.633z" fill="#BCDB30"/><path d="M197.615 600.315h-36.441c-.374-28.966-23.266-52.512-52.045-53.82v-36.442c48.868 1.309 88.112 41.114 88.486 90.262z" fill="#94D00D"/><path d="M165.472 600.315h-56.343v-58.212c31.115 1.401 55.969 26.817 56.343 58.212z" fill="#6BA90A"/><path d="M143.701 600.315h-34.572v-35.787c19.155.841 34.385 16.539 34.572 35.787z" fill="#FCF78D"/><path d="M121.369 550.506a2.254 2.254 0 00-2.71 1.682l-1.868 7.756a2.252 2.252 0 001.682 2.709c.186 0 .373.094.56.094 1.028 0 1.962-.654 2.149-1.682l1.869-7.756c.28-1.214-.467-2.429-1.682-2.803zm16.819 7.295a2.145 2.145 0 00-3.083.56l-4.579 6.448a2.145 2.145 0 00.561 3.083c.373.28.841.374 1.308.374.654 0 1.401-.374 1.869-.935l4.578-6.447c.561-1.028.374-2.429-.654-3.083zm12.708 12.614c-.654-1.028-2.056-1.308-3.084-.561l-6.54 4.392a2.144 2.144 0 00-.561 3.083c.467.654 1.121 1.028 1.869 1.028.467 0 .841-.093 1.214-.374l6.541-4.391c1.028-.841 1.308-2.149.561-3.177zm7.008 17.38c-.187-1.215-1.215-2.056-2.523-1.963l-7.849.935c-1.215.187-2.056 1.308-1.962 2.523.187 1.121 1.121 1.962 2.242 1.962h.281l7.848-.935c1.309-.186 2.15-1.308 1.963-2.522z" fill="#1E1E1C"/><path d="M108.763 499.682v-9.905C48.682 491.085.373 539.954 0 600.315h9.905c.373-54.848 44.29-99.325 98.858-100.633z" fill="#93602F"/><path d="M9.905 600.315h10.371c.374-49.149 39.618-88.954 88.487-90.262v-10.371c-54.568 1.308-98.485 45.785-98.858 100.633z" fill="#BCDB30"/><path d="M20.276 600.315h36.442c.373-28.966 23.266-52.512 52.045-53.82v-36.442c-48.869 1.309-88.113 41.114-88.487 90.262z" fill="#94D00D"/><path d="M52.42 600.315h56.343v-58.212c-31.115 1.401-55.97 26.817-56.344 58.212z" fill="#6BA90A"/><path d="M74.19 600.315h34.573v-35.787c-19.155.841-34.386 16.539-34.572 35.787z" fill="#FCF78D"/><path d="M96.523 550.506a2.254 2.254 0 012.71 1.682l1.868 7.756a2.253 2.253 0 01-1.682 2.709c-.187 0-.374.094-.56.094-1.028 0-1.963-.654-2.15-1.682l-1.868-7.756c-.28-1.214.467-2.429 1.682-2.803zm-16.82 7.295a2.145 2.145 0 013.084.56l4.578 6.448a2.145 2.145 0 01-.56 3.083c-.374.28-.841.374-1.308.374-.654 0-1.402-.374-1.87-.935l-4.578-6.447c-.56-1.028-.373-2.429.654-3.083zm-12.707 12.614a2.145 2.145 0 013.083-.561l6.54 4.392a2.145 2.145 0 01.562 3.083c-.468.654-1.122 1.028-1.87 1.028-.466 0-.84-.093-1.214-.374l-6.54-4.391c-1.029-.841-1.309-2.149-.561-3.177zm-7.008 17.38c.187-1.215 1.215-2.056 2.523-1.963l7.849.935c1.214.187 2.055 1.308 1.962 2.523-.187 1.121-1.121 1.962-2.243 1.962h-.28l-7.849-.935c-1.308-.186-2.149-1.308-1.962-2.522z" fill="#1E1E1C"/><path d="M325.907 600.315c.281-29.9 24.575-54.007 54.475-54.007 29.994 0 54.288 24.107 54.475 54.007h-108.95zm0-54.101c.281-30.835 24.575-55.783 54.475-55.783 29.994 0 54.288 24.948 54.475 55.783h-108.95z" fill="#FF7B67"/><path d="M325.44 493.234v-.841c-29.06.094-52.606 23.454-53.073 52.42-.094.187-.094.373-.187.56-.094-.187-.094-.374-.187-.654-.561-28.966-24.107-52.232-53.074-52.326v.841c0 28.593 22.519 51.952 50.831 53.261 1.121 8.409-1.588 17.286-7.849 23.733.654 1.028 1.402 1.962 2.243 2.897l.28.28a27.965 27.965 0 007.756-12.334c1.401 4.578 3.924 8.877 7.755 12.334l.28-.28c.841-.935 1.589-1.869 2.243-2.897-6.26-6.541-8.877-15.324-7.849-23.733 28.312-1.309 50.831-24.668 50.831-53.261z" fill="#759641"/><path d="M245.176 600.315c14.913 0 27.003-12.09 27.003-27.003 0-14.914-12.09-27.004-27.003-27.004-14.914 0-27.004 12.09-27.004 27.004 0 14.913 12.09 27.003 27.004 27.003z" fill="#FF4C00"/><path d="M299.09 600.315c14.914 0 27.004-12.09 27.004-27.003 0-14.914-12.09-27.004-27.004-27.004-14.914 0-27.004 12.09-27.004 27.004 0 14.913 12.09 27.003 27.004 27.003z" fill="#FF4C00"/><path d="M762.454 167.892v-.841c-29.059.093-52.606 23.453-53.073 52.419-.093.187-.093.374-.187.561-.093-.187-.093-.374-.187-.654-.56-28.966-24.107-52.233-53.073-52.326v.841c0 28.592 22.519 51.952 50.831 53.26 1.121 8.41-1.589 17.286-7.849 23.734.654 1.027 1.402 1.962 2.243 2.896l.28.28a27.96 27.96 0 007.755-12.333c1.402 4.578 3.925 8.876 7.756 12.333l.28-.28c.841-.934 1.588-1.869 2.243-2.896-6.261-6.541-8.877-15.324-7.849-23.734 28.312-1.308 50.83-24.668 50.83-53.26z" fill="#759641"/><path d="M682.19 274.973c14.914 0 27.004-12.09 27.004-27.004 0-14.914-12.09-27.004-27.004-27.004-14.914 0-27.004 12.09-27.004 27.004 0 14.914 12.09 27.004 27.004 27.004z" fill="#FF4C00"/><path d="M736.104 274.973c14.914 0 27.004-12.09 27.004-27.004 0-14.914-12.09-27.004-27.004-27.004-14.913 0-27.003 12.09-27.003 27.004 0 14.914 12.09 27.004 27.003 27.004z" fill="#FF4C00"/><path d="M541.471 384.658v-.841c-28.686.094-51.952 23.36-51.952 52.139v.841c28.686-.093 51.952-23.453 51.952-52.139zm-104.278-.841v.841c0 28.686 23.267 52.046 51.952 52.139v-.841c0-28.686-23.266-52.045-51.952-52.139z" fill="#AB82A5"/><path d="M541.471 488.936v.841c-28.686-.093-51.952-23.36-51.952-52.139v-.841c28.686.094 51.952 23.36 51.952 52.139zm-104.278.748v-.841c0-28.686 23.267-52.046 51.952-52.139v.841c0 28.779-23.266 52.045-51.952 52.139z" fill="#AB82A5"/><path d="M654.999 546.458v-.841c-30.18.094-54.661 24.668-54.661 54.849v.841c30.18 0 54.661-24.575 54.661-54.849zm-109.697-.841v.841c0 30.274 24.481 54.755 54.662 54.849v-.841c0-30.181-24.481-54.755-54.662-54.849zm109.697-54.999v-.841c-30.928.094-55.969 24.668-55.969 54.849v.841c30.928-.094 55.969-24.668 55.969-54.849zm-112.406-.934v.841c0 30.274 25.041 54.755 55.969 54.848v-.841c0-30.181-25.041-54.662-55.969-54.848z" fill="#759641"/><path d="M552.871 489.684h-10.278c.56-62.324 50.363-112.781 112.407-114.463v10.278c-56.344 1.682-101.569 47.654-102.129 104.185z" fill="#00AA41"/><path d="M654.999 385.593v14.016c-48.588 1.682-87.552 41.3-88.113 90.168H552.87c.561-56.624 45.785-102.596 102.129-104.184z" fill="#FFFAD3"/><path d="M655 399.609v90.168h-88.113c.467-48.962 39.431-88.58 88.113-90.168z" fill="#FF4C00"/><path d="M644.254 442.123c1.215-.28 2.523.467 2.803 1.682l1.962 8.036c.281 1.215-.467 2.523-1.682 2.803-.186 0-.373.093-.56.093-1.028 0-1.962-.747-2.243-1.775l-1.962-8.036c-.28-1.214.467-2.429 1.682-2.803zm-17.473 6.915c1.028-.748 2.523-.467 3.27.56l4.765 6.728c.748 1.028.468 2.523-.56 3.27-.374.281-.841.468-1.308.468-.748 0-1.402-.374-1.869-.935l-4.765-6.727c-.748-1.122-.561-2.617.467-3.364zm-13.175 13.175c.747-1.028 2.149-1.308 3.27-.654l6.821 4.578c1.028.748 1.308 2.149.654 3.271a2.436 2.436 0 01-1.962 1.027c-.467 0-.934-.093-1.308-.373l-6.821-4.579c-1.121-.747-1.402-2.242-.654-3.27zm-7.288 18.033c.187-1.308 1.308-2.149 2.616-2.055l8.129 1.028c1.308.186 2.149 1.308 2.056 2.616-.187 1.215-1.121 2.056-2.336 2.056h-.28l-8.13-1.028c-1.308-.187-2.242-1.308-2.055-2.617z" fill="#1E1E1C"/><path d="M756.231 489.684h10.278c-.561-62.324-50.364-112.781-112.407-114.463v10.278c56.343 1.682 101.568 47.654 102.129 104.185z" fill="#00AA41"/><path d="M654.102 385.593v14.016c48.588 1.682 87.552 41.3 88.113 90.168h14.016c-.561-56.624-45.785-102.596-102.129-104.184z" fill="#FFFAD3"/><path d="M654.101 399.609v90.168h88.113c-.467-48.962-39.431-88.58-88.113-90.168z" fill="#FF4C00"/><path d="M664.847 442.123c-1.214-.28-2.523.467-2.803 1.682l-1.962 8.036c-.28 1.215.467 2.523 1.682 2.803.187 0 .374.093.561.093 1.027 0 1.962-.747 2.242-1.775l1.962-8.036c.281-1.214-.467-2.429-1.682-2.803zm17.473 6.915c-1.028-.748-2.523-.467-3.27.56l-4.765 6.728c-.748 1.028-.468 2.523.56 3.27.374.281.841.468 1.308.468.748 0 1.402-.374 1.869-.935l4.766-6.727c.747-1.122.56-2.617-.468-3.364zm13.175 13.175c-.747-1.028-2.149-1.308-3.27-.654l-6.821 4.578c-1.028.748-1.308 2.149-.654 3.271a2.436 2.436 0 001.962 1.027c.467 0 .934-.093 1.308-.373l6.821-4.579c1.121-.747 1.402-2.242.654-3.27zm7.288 18.033c-.187-1.308-1.308-2.149-2.616-2.055l-8.129 1.028c-1.308.186-2.149 1.308-2.056 2.616.187 1.215 1.121 2.056 2.336 2.056h.28l8.13-1.028c1.308-.187 2.242-1.308 2.055-2.617z" fill="#1E1E1C"/><path d="M489.332 276.363c-30.274 0-54.849 24.574-54.849 54.848 0 30.275 24.575 54.849 54.849 54.849 30.274 0 54.849-24.574 54.849-54.849 0-30.367-24.575-54.848-54.849-54.848zm0 78.675c-13.175 0-23.92-10.652-23.92-23.92 0-13.175 10.652-23.92 23.92-23.92 13.175 0 23.92 10.652 23.92 23.92 0 13.268-10.745 23.92-23.92 23.92z" fill="#FF7B67"/><path d="M655 331.492v-55.223c-29.901.28-54.008 24.575-54.008 54.475 0-29.994-24.107-54.288-54.008-54.475v56.904h.094c1.121 28.873 24.855 51.953 54.008 51.953 29.152 0 52.886-23.08 54.007-51.953h.094v-1.681H655z" fill="#FFCB00"/><path d="M28.556 220.908c15.172 0 27.47-12.299 27.47-27.471s-12.298-27.471-27.47-27.471c-15.172 0-27.471 12.299-27.471 27.471s12.3 27.471 27.47 27.471zm54.942 0c15.172 0 27.471-12.299 27.471-27.471s-12.3-27.471-27.471-27.471c-15.172 0-27.471 12.299-27.471 27.471s12.3 27.471 27.47 27.471zM28.556 275.85c15.172 0 27.47-12.299 27.47-27.471s-12.298-27.471-27.47-27.471c-15.172 0-27.471 12.299-27.471 27.471s12.3 27.471 27.47 27.471zm54.942 0c15.172 0 27.471-12.299 27.471-27.471s-12.3-27.471-27.471-27.471c-15.172 0-27.471 12.299-27.471 27.471s12.3 27.471 27.47 27.471z" fill="#FF7B67"/><path d="M108.799 438.836v-55.222c-29.9.28-54.007 24.574-54.007 54.475 0-29.994-24.108-54.288-54.008-54.475v56.904h.093C2 469.391 25.732 492.47 54.885 492.47c29.153 0 52.887-23.079 54.008-51.952h.093v-1.682h-.187z" fill="#FFCB00"/><path d="M507.74 490.151c-6.354 0-12.334 2.336-17.567 6.447-5.232-4.111-11.212-6.447-17.566-6.447-20.744 0-37.563 24.668-37.563 55.129s16.819 55.129 37.563 55.129c6.354 0 12.334-2.336 17.566-6.447 5.233 4.111 11.213 6.447 17.567 6.447 20.743 0 37.562-24.668 37.562-55.129s-16.819-55.129-37.562-55.129z" fill="#BCDB30"/></svg>