<svg width="48" height="95" fill="none" xmlns="http://www.w3.org/2000/svg"><path d="M48 23.974v-.408c-13.13.082-23.811 10.684-23.811 23.894v.408c13.129-.082 23.81-10.764 23.81-23.893zM.214 23.566v.408c0 13.129 10.683 23.811 23.812 23.893v-.408c0-13.129-10.683-23.811-23.812-23.893zM48 .408V0C34.87.082 24.189 10.682 24.189 23.893v.407c13.129 0 23.81-10.682 23.81-23.892zM.214.082v.407c0 13.13 10.683 23.811 23.812 23.893v-.408C24.026 10.764 13.343.082.214.082zM48 71.107v-.408c-13.129.082-23.811 10.683-23.811 23.893V95c13.129-.082 23.81-10.764 23.81-23.893zM.214 70.7v.407C.214 84.236 10.897 94.918 24.026 95v-.408c0-13.129-10.683-23.811-23.812-23.893zM48 47.54v-.407c-13.129.081-23.811 10.682-23.811 23.893v.407c13.129 0 23.81-10.682 23.81-23.893zM.214 47.215v.408c0 13.128 10.683 23.81 23.812 23.892v-.407c0-13.21-10.683-23.893-23.812-23.893z" fill="#FFD860"/></svg>