<svg width="94" height="94" fill="none" xmlns="http://www.w3.org/2000/svg"><path d="M9.07 94h8.82c.318-41.795 33.69-75.645 75.248-76.757v-8.82C46.734 9.535 9.388 47.357 9.07 94z" fill="#BCDB30"/><path d="M93.138 8.423V0C42.045 1.112.965 42.67.648 94H9.07C9.388 47.358 46.734 9.535 93.138 8.423z" fill="#93602F"/><path d="M17.89 94h30.989c.318-24.632 19.785-44.656 44.259-45.768v-30.99C51.58 18.356 18.208 52.206 17.89 94z" fill="#94D00D"/><path d="M45.629 94h47.914V44.497C67.083 45.69 45.946 67.302 45.629 94z" fill="#6BA90A"/><path d="M63.947 94h29.4V63.567c-16.29.715-29.241 14.065-29.4 30.433z" fill="#FCF78D"/><path d="M83.469 51.161a1.917 1.917 0 012.304 1.43l1.59 6.596a1.917 1.917 0 01-1.431 2.304c-.16 0-.318.08-.477.08-.874 0-1.669-.557-1.828-1.431l-1.589-6.595c-.238-1.033.398-2.066 1.43-2.384zm-14.303 6.685a1.824 1.824 0 012.622.477l3.894 5.483a1.824 1.824 0 01-.477 2.622c-.318.238-.715.318-1.112.318-.557 0-1.192-.318-1.59-.795l-3.893-5.483c-.477-.874-.318-2.066.556-2.622zM58.36 68.573a1.824 1.824 0 012.622-.476l5.562 3.734a1.824 1.824 0 01.477 2.622c-.398.556-.954.874-1.59.874-.397 0-.715-.08-1.033-.318l-5.562-3.734c-.874-.715-1.112-1.828-.477-2.702zM52.4 83.352c.16-1.032 1.033-1.748 2.146-1.668l6.674.794c1.033.16 1.748 1.113 1.669 2.146-.16.953-.954 1.668-1.907 1.668h-.239l-6.674-.794c-1.113-.16-1.828-1.113-1.669-2.146z" fill="#1E1E1C"/></svg>