<svg width="207" height="116" fill="none" xmlns="http://www.w3.org/2000/svg"><path fill="#1E1E1E" d="M0 0h207v116H0z"/><g clip-path="url(#clip0_0_1)"><path fill="#fff" d="M-561-5591h768V135h-768z"/><path d="M-513-373c0-35.346 28.654-64 64-64h608V21c0 35.346-28.654 64-64 64h-608v-458z" fill="#84AF3A"/><path d="M18.663 0H0v18.663c0 36.662 29.72 66.34 66.34 66.34h18.663V66.34C85.003 29.72 55.325 0 18.663 0z" fill="#6D8C38"/><path d="M183.141 6.242H207v23.86c0 46.886-38.033 84.919-84.92 84.919H98.221V91.162c.042-46.887 38.033-84.92 84.92-84.92z" fill="#94D00D"/></g><defs><clipPath id="clip0_0_1"><path fill="#fff" transform="translate(-561 -5591)" d="M0 0h768v5726H0z"/></clipPath></defs></svg>