<svg width="218" height="30" fill="none" xmlns="http://www.w3.org/2000/svg"><path d="M51.938 20.563c0 2.687-.876 4.937-2.688 6.75C47.437 29.125 45.187 30 42.5 30c-2.688 0-4.938-.875-6.75-2.688-1.813-1.812-2.688-4.062-2.688-6.75 0-2.687.876-4.875 2.688-6.687 1.813-1.75 4.063-2.625 6.75-2.625 2.688 0 4.938.875 6.75 2.688 1.813 1.75 2.688 3.937 2.688 6.624zm-4.313 0c0-1.5-.5-2.813-1.438-3.813-.937-1-2.187-1.563-3.687-1.563s-2.75.5-3.688 1.563c-.937 1-1.437 2.313-1.437 3.813s.5 2.812 1.438 3.937c1 1.063 2.25 1.563 3.75 1.563s2.75-.5 3.687-1.563c.938-1.125 1.375-2.438 1.375-3.938zM72.375 2.75v26.688h-4.313v-1.25c-1.562 1.125-3.374 1.687-5.437 1.687-2.5 0-4.625-.875-6.375-2.688-1.75-1.812-2.625-4-2.625-6.625 0-2.562.875-4.75 2.625-6.562 1.75-1.813 3.875-2.688 6.375-2.688 2.063 0 3.875.563 5.438 1.626V2.75h4.312zm-9.188 23.313c2.063 0 3.688-.813 4.813-2.5V17.5c-1.125-1.625-2.75-2.5-4.813-2.5-1.5 0-2.75.563-3.75 1.625-1 1.063-1.5 2.375-1.5 3.875s.5 2.813 1.5 3.938c1.063 1.125 2.313 1.625 3.75 1.625zM7.125 4h4.188V0H7.125A7.122 7.122 0 000 7.125v22.313h4V15.874h7.313V12.25H4V7.187C4 5.438 5.375 4 7.125 4z" fill="#3C2D28"/><path d="M111.812 11.063c-2.062 0-3.874.687-5.5 2.062v-1.438h-4.374V29.5h4.374V17.625c1.376-1.688 2.938-2.563 4.563-2.563 1.375 0 2.437.438 3.187 1.25.75.813 1.188 2.063 1.188 3.563v9.563h4.312v-9.813c0-2.563-.687-4.625-2.125-6.188-1.437-1.562-3.312-2.374-5.625-2.374zm24.001 1.812c-1.563-1.125-3.375-1.625-5.438-1.625-2.5 0-4.625.938-6.375 2.75-1.75 1.813-2.625 4-2.625 6.563 0 2.562.875 4.75 2.625 6.562 1.75 1.813 3.875 2.688 6.375 2.688 2.063 0 3.875-.563 5.438-1.625v1.25h4.312V11.625h-4.312v1.25zm0 10.688c-1.125 1.687-2.75 2.5-4.813 2.5-1.5 0-2.75-.563-3.75-1.625-1-1.063-1.5-2.375-1.5-3.938 0-1.5.5-2.813 1.5-3.938s2.313-1.625 3.75-1.625c2.063 0 3.688.813 4.813 2.5v6.125zm17.437-12.5c-2.063 0-3.875.687-5.5 2.062v-1.438h-4.375V29.5h4.375V17.625c1.375-1.688 2.937-2.563 4.562-2.563 1.375 0 2.438.438 3.188 1.25.75.813 1.187 2.063 1.187 3.563v9.563H161v-9.813c0-2.563-.688-4.625-2.125-6.188-1.438-1.562-3.313-2.374-5.625-2.374zm19.063 4.125c1.125 0 2.062.312 2.812.874.75.563 1.25 1.313 1.437 2.25H181c-.25-2.062-1.188-3.75-2.875-5.062-1.625-1.313-3.562-2-5.812-2-2.688 0-4.876.875-6.751 2.688-1.812 1.75-2.687 4-2.687 6.687 0 2.688.875 4.875 2.687 6.625 1.813 1.75 4.063 2.688 6.751 2.688 2.312 0 4.249-.625 5.875-1.938 1.624-1.313 2.562-3.063 2.875-5.125h-4.438c-.187.938-.688 1.688-1.438 2.313-.75.562-1.687.875-2.812.875-1.5 0-2.688-.5-3.688-1.563-.937-1-1.437-2.313-1.437-3.813s.5-2.812 1.437-3.812c.938-1.188 2.188-1.688 3.626-1.688zm19.437-3.938c-2.813 0-5.063.875-6.875 2.688-1.75 1.75-2.625 4-2.625 6.687 0 2.688.875 4.875 2.625 6.688 1.75 1.75 4.062 2.625 6.875 2.625 2.062 0 3.812-.5 5.312-1.438 1.5-.938 2.5-2.25 3-3.875h-4.624c-.625 1.125-1.876 1.625-3.626 1.625-1.375 0-2.562-.375-3.437-1.063-.875-.687-1.437-1.625-1.75-2.875h13.687a14.44 14.44 0 00.126-2c0-2.687-.875-4.812-2.5-6.5-1.625-1.75-3.626-2.562-6.188-2.562zM186.688 19c.25-1.25.812-2.25 1.624-3 .875-.75 1.938-1.125 3.25-1.125 1.25 0 2.313.375 3.063 1.063.75.75 1.25 1.75 1.438 3h-9.375V19zm25.499 0l-3.312-.5c-1.687-.25-2.5-.938-2.5-2.063 0-.562.313-1 .875-1.375.562-.374 1.375-.562 2.312-.562 1.125 0 2 .25 2.688.688.688.437 1.062 1.062 1.125 1.937l4-.063c-.188-2.312-1.188-3.875-3-4.75-1.5-.75-3.187-1.124-4.875-1.124-2.25 0-4.063.5-5.438 1.562-1.375 1-2.062 2.438-2.062 4.188 0 2.812 1.75 4.562 5.25 5.125l3.875.625c1.437.25 2.125.875 2.125 1.875 0 .625-.312 1.062-1 1.437s-1.5.5-2.563.5c-2.562 0-4-1-4.375-3l-4-.063c.188 2.188 1.063 3.875 2.5 4.938 1.438 1.063 3.375 1.625 5.75 1.625s4.25-.5 5.688-1.563c1.437-1.062 2.125-2.5 2.125-4.312.125-2.875-1.688-4.563-5.188-5.125zM81.75 7.125v22.313h4V15.874h7.375V12.25h-7.313V7.187c0-1.687 1.376-3.125 3.126-3.125h4.187V0h-4.188c-4 0-7.187 3.188-7.187 7.125zm17.938 4.5h-4.313v17.813h4.313V11.625zm0-7.625h-4.313v4.313h4.313V4z" fill="#71802F"/><path d="M31.375 20.563c0 2.687-.875 4.937-2.688 6.75C26.875 29.125 24.625 30 21.938 30c-2.687 0-4.937-.875-6.75-2.688-1.812-1.812-2.687-4.062-2.687-6.75 0-2.687.875-4.875 2.688-6.687 1.812-1.75 4.062-2.688 6.75-2.688 2.687 0 4.937.876 6.75 2.688 1.812 1.813 2.687 4 2.687 6.688zm-4.313 0c0-1.5-.5-2.813-1.437-3.813-.938-1-2.188-1.563-3.688-1.563s-2.75.5-3.687 1.563c-.938 1-1.438 2.313-1.438 3.813s.5 2.812 1.438 3.937c1 1.063 2.25 1.563 3.75 1.563s2.75-.5 3.688-1.563c.875-1.125 1.375-2.438 1.375-3.938z" fill="#3C2D28"/><path d="M45 8.875h-1.938V6.937C43.063 3.126 46.188 0 50 0h1.938v1.938c0 3.875-3.063 6.937-6.938 6.937zm-4.437 0h1.374V7.5a4.815 4.815 0 00-4.812-4.813H35.75v1.375a4.775 4.775 0 004.813 4.813z" fill="#759641"/></svg>